PathFileType	4	(X/Y/Z)	C:/Users/opensim2020/Desktop/walking_exp_matlab/subject01_walking15_straight_01.trc	
DataRate	CameraRate	NumFrames	NumMarkers	Units	OrigDataRate	OrigDataStartFrame	OrigNumFrames	
100.00	100.00	7	43	mm	100.00	746	125	
Frame#	Time	LFHD			RFHD			LBHD			RBHD			C7			T10			CLAV			STRN			RBAK			LSHO			LUPA			LELB			LFRM			LWRA			LWRB			LFIN			RSHO			RUPA			RELB			RFRM			RWRA			RWRB			RFIN			LASI			RASI			LPSI			RPSI			LTHI			LKNE			LTIB			LANK			LHEE			LTOE			RTHI			RKNE			RTIB			RANK			RHEE			RTOE			*39			*40			*41			*42			
		X1	Y1	Z1	X2	Y2	Z2	X3	Y3	Z3	X4	Y4	Z4	X5	Y5	Z5	X6	Y6	Z6	X7	Y7	Z7	X8	Y8	Z8	X9	Y9	Z9	X10	Y10	Z10	X11	Y11	Z11	X12	Y12	Z12	X13	Y13	Z13	X14	Y14	Z14	X15	Y15	Z15	X16	Y16	Z16	X17	Y17	Z17	X18	Y18	Z18	X19	Y19	Z19	X20	Y20	Z20	X21	Y21	Z21	X22	Y22	Z22	X23	Y23	Z23	X24	Y24	Z24	X25	Y25	Z25	X26	Y26	Z26	X27	Y27	Z27	X28	Y28	Z28	X29	Y29	Z29	X30	Y30	Z30	X31	Y31	Z31	X32	Y32	Z32	X33	Y33	Z33	X34	Y34	Z34	X35	Y35	Z35	X36	Y36	Z36	X37	Y37	Z37	X38	Y38	Z38	X39	Y39	Z39	X40	Y40	Z40	X41	Y41	Z41	X42	Y42	Z42	X43	Y43	Z43	

79	0.780	1381.89929	96.98129	1653.06189	1488.74805	132.84836	1662.87732	1415.85229	-13.24226	1606.76416	1529.77991	22.40940	1615.48206	1448.89795	-35.64761	1414.38928	1467.01538	-68.13265	1118.45068	1451.73718	112.64217	1351.21997	1456.56628	158.28752	1197.64709	1534.18030	-89.96718	1223.08765	1291.05212	49.03096	1375.81580	1214.91772	0.58642	1191.78870	1226.24622	-35.85854	1048.90979	1202.75818	-33.20975	937.04089	1220.02625	4.85223	801.34076	1198.40063	-49.86315	815.31073	1188.04846	-29.20912	733.80469	1599.32422	42.61395	1390.12036	1714.44238	-2.99109	1198.16113	1733.23010	21.63569	1072.65637	1754.00476	110.91738	984.55945	1716.01135	236.57539	931.73688	1759.67517	207.49695	908.94928	1752.50586	283.41589	868.55780	1379.29968	125.51997	918.50720	1592.44763	100.77970	913.97656	1404.90759	-66.03972	926.83203	1549.13586	-79.49379	933.97827	1326.51636	178.36154	603.28369	1354.68054	209.83539	477.67905	1344.55640	193.34775	287.13593	1404.98499	190.13435	69.33966	1457.90930	145.14603	39.71427	1403.37000	334.47443	40.76550	1650.66309	-9.79858	588.11725	1637.29419	-38.63860	429.58517	1635.87891	-187.06496	331.02103	1596.77417	-334.04602	181.66960	1542.59839	-379.68332	203.47166	1571.17383	-310.08490	37.60618	1469.02966	116.33340	1695.74878	-3102.01782	1973.23083	1023.40063	-3140.84473	2012.43188	1022.03674			 
80	0.790	1378.65759	111.00329	1653.15625	1485.50818	146.80226	1663.52222	1412.81372	0.77841	1606.92236	1526.72827	36.32979	1616.25452	1446.92590	-21.41569	1414.87109	1465.97009	-54.09227	1119.18677	1450.19031	126.82214	1352.07813	1455.68384	172.75670	1198.57361	1532.54492	-75.87922	1223.93884	1289.42639	63.65820	1375.84851	1213.48022	17.84173	1191.45789	1224.51001	-17.28568	1048.05933	1200.91797	-12.72515	936.31158	1218.62830	26.88857	801.09711	1196.50171	-27.69823	814.46088	1186.18311	-6.08742	733.01025	1597.51453	56.56837	1391.15869	1711.78271	8.20669	1199.14661	1731.16821	32.68723	1073.82104	1752.59180	120.56078	984.42493	1715.53333	245.48595	929.08459	1759.16333	215.79437	907.03766	1752.66968	291.02728	865.30255	1378.04785	139.88148	920.26709	1591.06128	114.77811	914.33875	1405.07385	-51.58743	927.64545	1549.32654	-65.11417	933.14746	1326.79639	194.07242	605.05469	1354.97119	222.64474	476.55048	1344.71436	201.18008	285.60373	1405.64136	191.42763	69.19815	1457.74365	145.71152	40.13280	1403.58411	336.15051	39.29280	1651.33093	12.81482	585.76691	1638.83630	-11.85433	427.22452	1638.01624	-162.93881	333.00720	1598.27954	-314.68414	189.64833	1544.83679	-359.30045	214.89413	1572.74255	-299.72794	44.47775	1465.46521	130.78461	1696.27441	-3101.77124	1973.14539	1023.46478	-3140.66333	2012.53003	1022.17877			 
81	0.800	1375.53198	124.79613	1653.17725	1482.22937	160.73286	1664.30920	1410.01770	14.71755	1607.01978	1523.83276	50.35358	1617.11511	1445.11475	-7.76140	1415.14465	1464.74255	-40.06663	1119.89355	1448.79236	140.84308	1352.81311	1455.11438	186.79607	1199.32007	1531.26355	-61.92574	1224.93286	1287.99390	78.26051	1376.12549	1212.22852	35.04779	1191.32568	1222.62622	1.43799	1047.37305	1199.06970	7.97425	935.72626	1217.23328	49.59642	801.11066	1194.53235	-4.87049	813.76855	1184.42944	17.88164	732.14532	1595.75305	70.42841	1392.17700	1709.34216	19.45648	1200.30737	1729.13257	43.60240	1075.04614	1751.29333	129.89882	984.14783	1715.07397	253.92108	926.02625	1758.63574	223.47931	904.65680	1752.96155	297.90445	861.53864	1376.46338	154.00970	921.96790	1589.74695	128.86021	914.87634	1405.09265	-37.67332	928.55609	1549.47754	-51.13031	932.59845	1326.97351	208.45993	605.50562	1354.33350	233.34558	474.23807	1345.20886	206.99084	284.15906	1406.22778	192.87822	69.41140	1457.80774	146.13652	40.48281	1403.68530	337.57639	38.29292	1651.61414	35.71544	583.49542	1639.82007	15.74599	424.91150	1640.14600	-138.00783	334.90015	1598.90247	-293.39493	198.37097	1546.69556	-338.07227	225.97141	1574.10767	-286.34586	52.32710	1461.91016	144.75803	1696.81824	-3101.99512	1973.29041	1023.39801	-3140.73999	2012.49109	1022.18988			 
82	0.810	1372.43213	138.68260	1653.34192	1478.97424	174.74712	1665.28491	1407.42798	28.70377	1607.17151	1521.11475	64.49551	1618.17639	1443.44177	5.62995	1415.46326	1463.26721	-26.04636	1120.68469	1447.66235	154.81337	1353.47766	1454.57849	200.59558	1199.97339	1530.31567	-48.22555	1226.20288	1286.68701	92.73241	1376.51672	1211.02161	52.05841	1191.38391	1220.72119	20.23492	1046.83948	1197.23767	28.83580	935.25842	1215.86841	72.84509	801.40594	1192.76953	18.30467	813.03345	1182.71753	42.86264	731.99823	1594.22803	84.17474	1393.26221	1707.30835	31.01077	1201.59741	1727.13379	54.37906	1076.27063	1750.06714	138.87836	983.56995	1714.72961	261.86667	922.55756	1758.03528	230.65881	901.91681	1753.29382	304.03528	857.34094	1374.94714	167.82822	923.73181	1588.59827	142.85274	915.64264	1404.84338	-23.99906	929.51715	1549.27869	-37.25156	931.72552	1327.03857	220.96797	604.57556	1353.70825	242.52107	472.02460	1345.51904	211.48094	283.35861	1406.38293	193.93365	69.42026	1457.76868	146.39818	40.85307	1404.13867	338.76883	37.34433	1651.66467	58.94818	581.54333	1640.30164	43.68992	422.92743	1642.17566	-112.07777	337.08005	1599.19885	-271.15469	207.04082	1547.09973	-315.30505	235.96468	1577.42517	-269.37558	59.67411	1458.49243	158.41733	1697.53198	-3101.94678	1973.23096	1023.53680	-3140.65454	2012.51697	1022.07617			 
83	0.820	1369.53613	152.67395	1653.51721	1475.81921	188.87175	1666.29541	1405.06409	42.65110	1607.57141	1518.58948	78.69417	1619.53931	1441.81604	19.00181	1416.06445	1461.87488	-12.28309	1121.64832	1446.61353	168.66269	1354.19678	1454.03271	213.81500	1200.45142	1529.50342	-34.73708	1227.47412	1285.50952	107.07253	1377.05750	1209.83215	68.98592	1191.67346	1218.69812	38.84778	1046.43250	1195.39172	49.95537	934.90314	1214.52637	96.72049	802.07391	1191.00623	42.03001	812.48657	1181.01660	68.67432	732.12720	1592.83020	97.57044	1394.39014	1705.86145	42.93211	1203.05127	1725.09839	65.09520	1077.52405	1748.99792	147.47633	982.85101	1714.46753	269.29526	918.75122	1757.75537	237.32175	898.99664	1753.63330	309.51318	852.74689	1373.43579	181.12929	925.07581	1587.52258	156.62903	916.67188	1404.30652	-10.43957	930.29163	1548.68005	-23.28275	930.80365	1326.63013	230.97519	603.07074	1352.67078	250.13338	470.03900	1345.94666	215.16919	283.00168	1406.62158	194.94400	69.68219	1457.80359	146.63438	41.24580	1404.12073	339.71381	36.48870	1651.69971	82.53706	580.43701	1641.02258	71.58272	422.10193	1643.48572	-85.66679	339.37808	1598.74121	-248.14088	214.60553	1544.94141	-290.98117	243.95538	1582.02942	-249.74265	67.25816	1455.00452	172.02280	1698.34863	-3102.01099	1973.11914	1023.58246	-3140.68481	2012.58154	1022.14685			 
84	0.830	1366.70129	166.62885	1653.82043	1472.88000	203.09605	1667.36682	1402.91357	56.63340	1608.32410	1516.29297	92.99382	1621.11267	1440.29785	32.62682	1417.01282	1460.51404	1.39026	1122.62012	1445.78735	182.43996	1354.99719	1453.66772	227.20383	1201.13110	1528.61584	-21.30723	1228.80640	1284.41418	121.31598	1377.70422	1208.52100	85.67919	1192.14136	1216.73364	57.40070	1046.17651	1193.51318	71.19189	934.70746	1213.06042	121.19193	803.19397	1189.28479	66.32777	812.13715	1179.30957	95.49679	732.59534	1591.62170	110.70325	1395.67468	1704.82483	55.05456	1204.63794	1723.12317	75.71336	1078.74207	1747.94299	155.81139	982.01746	1714.31567	276.33884	914.70270	1757.70911	243.56573	895.94678	1754.01025	314.35703	847.80933	1372.12610	194.30470	926.23920	1586.63000	170.36795	918.00244	1403.54321	2.81817	931.00891	1548.11670	-9.67831	930.52789	1325.73193	239.07744	601.90796	1351.47375	256.90738	468.69565	1346.07739	218.54953	283.05371	1406.76733	195.50618	69.96340	1457.79724	146.92018	41.68677	1404.16321	340.62357	35.69645	1651.84412	106.02934	580.45428	1641.38599	98.92417	421.99078	1644.18250	-58.79863	341.60788	1597.76709	-223.97482	221.50029	1541.57178	-265.57083	249.76476	1587.29602	-227.47173	73.93393	1451.70691	186.01411	1699.29224	-3102.03516	1972.96631	1023.91547	-3140.74341	2012.49536	1022.05261			 
85	0.840	1364.29395	180.72955	1654.33740	1470.23047	217.45311	1668.44824	1400.99622	70.62735	1609.41443	1514.17981	107.24707	1622.81433	1438.93750	46.60332	1418.21973	1459.23828	14.96649	1123.61584	1445.06909	196.08398	1355.95496	1453.33826	240.56779	1201.98169	1527.41980	-7.95678	1230.08008	1283.49048	135.50287	1378.46948	1207.16797	102.17705	1192.82581	1214.79529	75.77160	1046.03784	1191.65967	92.57696	934.86426	1211.70691	146.01656	804.75067	1187.51636	91.11902	812.06500	1177.53931	122.65429	733.70129	1590.61304	123.73782	1397.11780	1704.04907	67.35641	1206.34558	1721.25354	86.36743	1079.96765	1746.96765	163.83179	981.09265	1714.33984	282.97864	910.47058	1757.63525	249.35516	892.79022	1754.29883	318.73737	842.55194	1370.95813	207.33978	927.16913	1585.87439	183.99596	919.58557	1402.68127	15.91574	931.69611	1547.38306	3.93423	930.28693	1324.75073	246.46974	600.80066	1350.74573	263.25543	467.99704	1345.91150	221.62871	283.36172	1407.23401	195.36469	70.31147	1457.81836	147.20013	42.27533	1404.18860	341.28973	35.21641	1652.04016	128.95044	581.53082	1642.32703	126.57877	423.43106	1644.61328	-31.34701	343.95523	1596.30334	-198.37109	226.93246	1538.35779	-238.91275	253.62199	1592.66956	-201.74165	79.54472	1448.46948	200.29869	1700.27490	-3101.93359	1973.04504	1023.55792	-3140.73633	2012.53784	1022.17712			 
